<?xml version="1.0" standalone="no"?>
<!DOCTYPE svg PUBLIC "-//W3C//DTD SVG 20010904//EN"
 "http://www.w3.org/TR/2001/REC-SVG-20010904/DTD/svg10.dtd">
<svg version="1.0" xmlns="http://www.w3.org/2000/svg"
 width="500.000000pt" height="500.000000pt" viewBox="0 0 500.000000 500.000000"
 preserveAspectRatio="xMidYMid meet">

<g transform="translate(0.000000,500.000000) scale(0.100000,-0.100000)"
fill="#000000" stroke="none">
<path d="M2225 4673 c-131 -11 -268 -50 -385 -108 -75 -38 -217 -140 -247
-178 l-20 -26 -17 35 c-33 71 -144 93 -248 50 -110 -45 -184 -128 -230 -259
-16 -48 -21 -87 -22 -173 l-1 -112 33 -38 c61 -72 65 -91 53 -243 -6 -89 -19
-167 -36 -224 -44 -153 -45 -152 156 -145 l151 6 -6 -37 c-38 -225 9 -448 128
-605 24 -31 32 -48 24 -51 -121 -38 -168 -63 -140 -73 20 -6 13 -17 -33 -50
-48 -34 -60 -68 -25 -74 18 -3 15 -11 -35 -83 -31 -44 -53 -86 -50 -94 3 -8
-5 -48 -19 -90 -13 -42 -27 -90 -29 -106 -7 -37 5 -61 24 -50 9 6 11 4 6 -8
-3 -9 -9 -60 -13 -114 -8 -115 11 -226 52 -311 22 -46 63 -87 64 -65 1 4 10
-10 22 -32 28 -54 77 -115 92 -115 7 0 26 -20 44 -45 35 -50 71 -61 73 -22 0
14 2 17 6 7 25 -72 78 -210 107 -279 l35 -84 -67 7 c-37 3 -77 6 -89 6 -22 0
-23 4 -23 78 0 42 -4 83 -9 90 -5 8 -33 22 -62 31 -37 12 -55 24 -58 37 -9 48
-74 74 -189 74 -48 0 -61 4 -81 25 -13 14 -29 25 -37 25 -7 0 -30 11 -50 25
-106 72 -310 92 -436 43 -37 -14 -69 -24 -72 -21 -10 11 -148 -72 -168 -101
-22 -30 -21 -30 19 6 38 34 112 78 130 78 4 0 -8 -16 -27 -35 -19 -19 -41 -35
-49 -35 -9 0 -23 -5 -31 -11 -12 -7 -8 -9 15 -7 42 4 44 -14 4 -34 -39 -20
-68 -75 -69 -128 0 -59 13 -66 43 -23 40 58 89 87 133 80 24 -4 47 -1 66 9 24
13 32 13 45 2 9 -7 39 -13 67 -13 30 0 79 -11 121 -27 39 -14 91 -34 116 -42
25 -9 54 -23 65 -31 16 -13 17 -16 4 -25 -8 -5 -31 -10 -51 -10 -19 0 -58 -6
-85 -14 -27 -8 -77 -20 -110 -26 -47 -9 -64 -17 -72 -34 -6 -14 -34 -31 -76
-48 l-67 -26 -102 29 c-56 16 -107 28 -114 27 -24 -5 40 -87 84 -109 41 -20
41 -20 27 -49 l-15 -29 -42 19 c-49 22 -58 19 -31 -11 58 -65 228 -97 350 -65
95 25 112 22 116 -17 3 -29 10 -35 85 -73 112 -55 214 -79 288 -67 l55 10 0
-58 0 -58 38 -11 c52 -15 255 -35 275 -27 12 4 17 18 17 47 0 47 23 55 42 15
14 -32 35 -32 50 0 16 35 30 27 48 -26 15 -42 18 -44 64 -53 34 -6 55 -5 67 2
10 7 26 9 35 5 11 -4 22 1 30 12 13 17 14 16 23 -8 5 -14 19 -28 29 -31 77
-25 872 -22 920 3 9 4 22 6 29 4 6 -2 33 7 60 20 l49 25 -1 -26 c0 -27 1 -27
65 -24 79 3 410 38 500 53 35 6 70 15 77 21 8 6 13 33 13 63 l0 52 48 -9 c77
-14 168 7 297 69 75 36 85 46 85 82 0 23 2 23 57 16 31 -4 67 -11 81 -16 77
-29 241 3 306 61 40 37 29 47 -23 20 l-41 -21 -10 26 c-14 37 -14 38 30 58 37
17 99 98 80 105 -4 2 -48 -8 -96 -22 -49 -15 -100 -26 -114 -26 -43 0 -143 45
-151 68 -5 14 -20 23 -46 27 -21 4 -70 15 -109 26 -38 10 -83 19 -100 19 -16
0 -36 5 -44 10 -13 8 -12 11 5 24 11 9 30 16 42 16 12 0 25 4 28 10 3 5 13 10
21 10 9 0 41 12 72 26 71 32 88 37 132 36 19 -1 43 6 53 16 17 15 20 15 48 0
19 -11 40 -15 63 -11 44 7 93 -22 131 -77 31 -45 45 -40 45 18 0 51 -25 100
-65 123 -19 12 -35 27 -35 34 0 7 -11 29 -25 49 -13 20 -22 36 -19 36 11 0 91
-44 124 -68 l35 -25 -30 32 c-32 34 -134 87 -186 96 -18 3 -54 15 -81 27 -71
30 -202 22 -317 -21 -46 -17 -91 -37 -100 -45 -9 -8 -28 -17 -43 -21 -17 -5
-25 -12 -21 -21 3 -8 3 -14 1 -14 -17 0 -177 -22 -192 -27 -15 -4 -18 -2 -13
12 15 39 46 215 48 273 2 51 5 62 19 62 10 0 21 10 24 22 7 22 8 22 23 -9 9
-18 20 -33 24 -33 18 0 33 83 32 185 0 95 -18 220 -40 283 -3 9 13 -1 35 -22
23 -22 45 -37 48 -33 14 13 -16 118 -56 196 -22 45 -38 81 -36 81 2 0 21 -22
42 -50 20 -27 41 -47 46 -44 23 14 -24 128 -76 184 -18 19 -33 46 -34 59 0 13
-9 32 -18 42 -16 18 -16 19 2 19 15 0 12 6 -16 30 -30 24 -32 30 -17 35 28 12
20 28 -34 65 -45 31 -49 35 -33 47 15 11 15 15 3 29 -18 22 -107 64 -135 64
-15 0 -21 6 -20 18 0 11 -13 24 -37 36 -28 13 -36 21 -28 29 20 20 11 26 -65
38 -43 8 -78 19 -81 26 -3 7 -16 13 -29 13 -16 0 -24 6 -24 18 0 9 -11 34 -25
54 -29 42 -31 58 -10 58 17 0 20 16 5 25 -8 5 -8 11 0 20 8 10 4 18 -16 34
-15 12 -32 21 -39 21 -7 0 -20 11 -29 25 l-16 25 27 -12 c16 -6 44 -26 63 -42
l35 -31 -34 38 c-19 20 -30 37 -24 37 21 0 7 42 -21 65 -18 14 -24 25 -17 29
6 4 11 12 11 17 0 6 -4 8 -8 5 -12 -7 -62 46 -67 72 -3 15 0 19 12 15 8 -3 11
-9 6 -12 -4 -3 4 -18 20 -33 33 -32 36 -24 5 10 -18 20 -19 24 -5 19 9 -4 17
-2 17 3 0 5 -10 12 -21 15 -17 6 -19 9 -8 16 11 8 9 13 -10 29 l-23 20 22 0
c22 0 23 1 5 20 -10 11 -26 22 -36 25 -11 4 -16 11 -13 17 9 14 -18 29 -32 17
-8 -7 -22 -1 -45 18 -18 15 -30 23 -26 16 5 -8 -2 -13 -20 -15 -23 -2 -14 -8
47 -31 41 -15 86 -35 100 -43 l25 -15 -34 6 c-19 3 -43 13 -53 22 -20 18 -39
10 -20 -9 17 -17 15 -26 -5 -31 -12 -3 -9 -5 8 -6 47 -2 89 -13 83 -22 -3 -5
-17 -9 -32 -9 -23 -1 -25 -2 -9 -11 25 -15 21 -27 -10 -31 -26 -3 -23 -6 30
-33 31 -16 57 -33 57 -37 0 -4 -15 -8 -32 -9 -33 0 -32 0 17 -24 50 -24 85
-48 85 -58 0 -3 -8 -4 -17 -2 -10 2 -24 4 -31 4 -7 1 -11 5 -8 10 4 5 -9 19
-28 30 -46 29 -54 26 -17 -5 38 -31 40 -48 5 -41 -21 4 -25 1 -21 -14 3 -11 1
-19 -4 -19 -6 0 -5 -9 2 -21 6 -12 7 -19 1 -15 -5 3 -15 -1 -22 -9 -11 -14
-15 -14 -36 0 -13 9 -24 11 -24 6 0 -10 10 -21 45 -46 l20 -15 -20 7 c-17 6
-16 3 7 -25 17 -20 24 -39 21 -52 -3 -12 -1 -20 5 -18 9 3 12 -1 12 -19 0 -4
-14 6 -31 23 -30 27 -31 27 -26 6 3 -15 2 -20 -6 -15 -18 11 -37 12 -37 2 0
-5 -11 -2 -25 7 -25 16 -25 16 -26 -17 -1 -19 0 -43 1 -53 1 -13 -3 -17 -13
-13 -9 3 -18 1 -20 -6 -3 -9 -8 -8 -21 2 -14 12 -16 12 -10 -4 5 -13 4 -16 -4
-11 -7 4 -12 2 -12 -5 0 -10 -3 -10 -12 -1 -16 16 -28 15 -28 -2 0 -23 -28
-27 -35 -5 -7 20 -8 20 -21 -5 -46 -85 -44 -82 -45 -61 0 11 -3 14 -6 8 -2 -7
-13 -13 -24 -13 -10 0 -19 -5 -19 -12 0 -6 -3 -9 -6 -5 -3 3 -17 -6 -29 -21
-13 -15 -33 -28 -45 -29 -18 -2 -19 1 -10 12 7 8 17 12 23 8 6 -3 7 -1 3 6 -7
10 27 61 76 115 10 11 18 25 18 30 0 6 11 12 24 12 53 3 103 64 121 147 2 12
9 40 14 61 7 30 6 44 -6 62 -8 13 -19 21 -24 18 -5 -3 -6 2 -3 10 4 10 1 16
-7 16 -11 0 -11 2 0 9 13 8 13 12 0 27 -9 11 -9 15 -1 10 7 -4 12 -2 12 8 0 8
-5 18 -10 21 -6 4 -8 10 -5 15 3 4 -3 14 -13 21 -15 13 -16 12 -4 -3 12 -15
11 -16 -11 -5 -21 10 -23 13 -9 26 13 13 12 17 -11 37 -14 12 -24 24 -21 27 3
2 -11 8 -30 11 -19 4 -36 12 -38 18 -2 6 -32 13 -66 16 l-61 4 -58 -55 c-60
-57 -96 -77 -139 -77 -34 0 -30 14 9 28 43 15 89 63 91 95 0 14 4 23 9 20 4
-2 7 2 7 9 0 29 21 40 99 58 78 17 131 39 66 27 -16 -3 -65 -11 -108 -17 -76
-13 -77 -13 -113 -62 -44 -62 -81 -78 -178 -78 -76 0 -108 -14 -60 -26 15 -4
35 -2 44 4 14 9 22 7 35 -8 16 -17 16 -20 2 -26 -9 -3 -55 -1 -104 4 -48 5
-93 6 -98 1 -6 -4 -19 -1 -29 7 -11 8 -34 14 -50 14 -30 -1 -29 -2 14 -19 59
-25 182 -51 247 -53 54 -1 64 -10 77 -69 4 -21 1 -28 -19 -37 -13 -6 -31 -22
-40 -36 l-16 -25 -36 25 c-34 23 -63 29 -128 24 -27 -2 -28 -1 -15 16 8 10 10
15 4 11 -7 -4 -17 6 -24 24 -14 33 -75 79 -147 111 -25 11 -86 46 -135 78 -57
38 -103 61 -131 65 -42 7 -90 -5 -102 -24 -11 -18 -22 -12 -21 11 2 38 59 68
131 68 38 0 68 5 81 15 25 19 81 19 118 0 21 -11 32 -12 42 -5 14 12 25 -12
29 -63 2 -15 6 -31 10 -35 4 -4 6 8 3 25 -2 18 0 34 6 36 7 2 7 12 -1 30 -7
14 -8 29 -4 31 15 10 49 -87 40 -112 -5 -12 -4 -22 1 -22 18 0 25 75 10 114
-6 18 -5 28 6 36 11 10 14 8 14 -10 0 -31 23 -20 32 17 4 16 18 34 30 40 23
10 23 10 23 -71 -1 -44 -4 -92 -9 -105 -6 -17 -5 -22 5 -19 19 6 29 63 24 139
-4 63 -3 66 21 78 24 10 26 10 19 -6 -14 -33 -17 -71 -6 -77 6 -4 11 -21 11
-38 0 -38 5 -34 13 10 5 23 3 31 -4 26 -17 -10 -1 56 20 85 9 13 26 26 36 29
38 8 143 7 132 -1 -7 -5 -1 -6 14 -3 28 6 47 -5 73 -44 28 -43 17 -45 -14 -2
-17 23 -35 42 -41 42 -6 0 3 -16 20 -35 17 -20 33 -46 37 -60 5 -21 9 -23 32
-14 15 6 56 17 92 24 36 7 99 21 140 30 41 9 94 15 118 12 37 -4 40 -3 25 8
-10 6 -52 15 -93 19 -41 4 -84 9 -95 11 -11 1 -26 3 -33 4 -7 0 -11 5 -7 10 3
5 -3 11 -12 14 -10 2 13 7 51 12 54 6 70 5 77 -6 7 -12 9 -11 9 1 0 12 2 12 8
2 5 -7 33 -15 63 -18 63 -7 162 -49 156 -67 -2 -6 3 -17 12 -24 15 -11 14 -12
-1 -13 -9 0 -19 -4 -22 -9 -4 -5 2 -7 11 -5 10 2 29 -5 43 -17 14 -11 19 -17
11 -13 -9 4 -12 3 -7 -4 3 -6 15 -10 26 -9 18 1 18 2 3 19 -11 12 -12 18 -4
18 7 0 10 4 7 9 -4 5 8 12 26 16 207 39 470 118 658 197 85 36 110 54 110 79
0 10 -62 73 -142 146 -78 70 -180 165 -227 210 -183 174 -316 268 -499 355
-154 73 -322 123 -466 137 -107 11 -138 11 -221 4z m235 -23 c216 -27 464
-121 655 -250 103 -69 144 -103 275 -225 58 -55 168 -156 243 -224 75 -68 137
-127 137 -131 0 -5 -5 -12 -12 -16 -7 -4 -8 -3 -4 5 9 14 -12 43 -26 35 -5 -3
-12 3 -14 13 -3 10 -14 20 -25 20 -12 1 -17 -2 -13 -9 13 -21 -119 93 -246
212 -215 200 -251 229 -393 318 -178 112 -503 202 -725 202 -138 0 -300 -42
-460 -118 -107 -50 -238 -178 -316 -308 -85 -140 -166 -244 -220 -279 -21 -14
-26 -14 -38 -2 -11 13 -17 13 -40 1 -40 -21 -111 -28 -136 -15 -46 25 -51 139
-12 286 34 129 87 198 193 251 98 50 201 43 252 -17 l20 -24 -25 21 c-40 34
-66 44 -115 44 -61 0 -174 -58 -159 -82 3 -5 0 -7 -6 -6 -7 2 -17 -6 -23 -17
-7 -10 -16 -24 -22 -31 -5 -6 -21 -24 -35 -40 -14 -16 -27 -40 -29 -54 -2 -14
-12 -58 -22 -99 -21 -84 -25 -191 -7 -209 7 -7 26 -12 43 -12 86 1 199 100
291 257 67 114 177 257 225 293 242 179 494 246 789 210z m164 -260 c64 -24
133 -87 168 -151 19 -37 23 -59 23 -139 0 -82 -3 -100 -23 -132 -24 -39 -61
-55 -47 -20 35 80 39 199 8 272 -37 92 -145 160 -253 160 -207 -1 -299 -194
-190 -402 28 -55 29 -58 10 -58 -26 0 -75 76 -96 148 -13 44 -14 65 -4 119 33
189 207 276 404 203z m-51 -136 c33 -6 37 -10 37 -36 0 -28 0 -28 -30 -13 -41
21 -67 19 -95 -10 -19 -19 -25 -35 -25 -71 0 -39 5 -51 34 -80 39 -39 75 -45
77 -14 4 61 1 73 -16 66 -11 -4 -15 1 -15 19 0 23 3 25 50 25 37 0 52 -4 57
-16 3 -9 1 -19 -5 -23 -7 -4 -15 -31 -19 -61 -8 -50 -10 -54 -41 -62 -69 -18
-160 37 -178 108 -14 57 25 135 81 160 35 15 38 16 88 8z m-589 -38 c69 -29
89 -106 39 -152 l-26 -24 34 -36 c41 -43 85 -67 110 -61 20 5 35 -21 20 -36
-15 -15 -94 -11 -127 6 -18 9 -46 35 -64 57 -18 23 -40 40 -52 40 -17 0 -19
-5 -13 -32 12 -60 17 -70 31 -64 9 3 14 -1 14 -14 0 -14 -10 -22 -37 -29 -93
-23 -93 -23 -93 -1 0 11 7 20 16 20 10 0 14 6 10 18 -3 9 -10 37 -15 62 -36
162 -44 190 -57 190 -8 0 -14 7 -14 15 0 15 39 29 120 44 65 13 67 12 104 -3z
m589 -346 c3 -34 2 -47 -3 -35 -8 19 -14 103 -6 94 2 -2 6 -29 9 -59z m-318
-148 c-13 -11 -65 -33 -65 -27 0 2 12 11 28 19 30 17 52 21 37 8z m-1079 -175
c-3 -114 -21 -197 -42 -197 -7 0 -16 -11 -20 -25 -4 -14 -8 -24 -11 -22 -2 3
5 41 17 86 18 71 37 212 41 306 1 28 1 28 10 -8 5 -21 7 -84 5 -140z m950 155
c-1 -7 -9 -18 -16 -25 -8 -6 -12 -8 -8 -3 4 4 1 15 -7 22 -20 20 -27 17 -15
-5 7 -14 7 -22 -2 -27 -7 -4 -8 -3 -4 4 10 16 -6 15 -24 0 -8 -7 -6 -2 5 11
20 24 20 24 0 18 -19 -7 -19 -6 -3 7 22 17 76 16 74 -2z m179 -2 c-27 -12 -43
-12 -25 0 8 5 22 9 30 9 10 0 8 -3 -5 -9z m219 -11 c-8 -14 -41 -11 -41 4 0 9
9 12 24 9 12 -2 20 -8 17 -13z m-76 4 c-10 -2 -26 -2 -35 0 -10 3 -2 5 17 5
19 0 27 -2 18 -5z m119 1 c-3 -3 -12 -4 -19 -1 -8 3 -5 6 6 6 11 1 17 -2 13
-5z m-592 -34 c8 -12 -30 -50 -52 -52 -10 0 -23 -2 -29 -2 -6 -1 -18 -7 -27
-14 -10 -8 -17 -9 -21 -3 -7 10 15 27 77 62 38 21 44 22 52 9z m-124 -40 c-19
-16 -37 -27 -40 -24 -8 7 47 54 62 54 7 -1 -3 -14 -22 -30z m547 1 c15 -10 29
-19 32 -18 14 1 50 -15 50 -23 0 -10 -19 -8 -37 3 -9 6 -11 3 -6 -10 6 -16 4
-16 -18 2 -18 16 -21 16 -10 2 8 -9 11 -20 8 -23 -3 -3 -13 8 -22 25 -8 17
-12 31 -8 31 5 0 -1 7 -11 15 -29 22 -9 18 22 -4z m-742 -239 c27 -18 68 -49
91 -70 l42 -37 -39 -132 c-21 -73 -42 -149 -45 -170 -3 -21 -13 -72 -23 -113
-10 -41 -17 -90 -17 -107 0 -18 -3 -33 -8 -33 -4 0 -6 -3 -5 -7 1 -5 -3 -18
-10 -31 -7 -12 -10 -27 -7 -32 4 -6 -5 -5 -19 2 -14 6 -26 16 -26 21 0 6 -7
17 -15 26 -8 9 -24 27 -34 41 -18 24 -20 24 -27 6 -5 -13 1 -36 19 -70 l26
-51 -24 30 c-64 78 -125 286 -125 427 0 113 49 306 84 331 25 18 113 1 162
-31z m734 -5 c0 -2 -20 -18 -45 -36 -25 -18 -45 -30 -45 -27 0 4 81 66 87 66
2 0 3 -1 3 -3z m-60 -21 c0 -2 -7 -7 -16 -10 -8 -3 -12 -2 -9 4 6 10 25 14 25
6z m-46 -145 c20 -57 34 -106 31 -109 -2 -3 -8 4 -11 14 -4 10 -22 59 -40 108
-32 84 -46 142 -25 106 5 -8 25 -62 45 -119z m-7 114 c0 -8 -4 -12 -9 -9 -5 3
-6 10 -3 15 9 13 12 11 12 -6z m223 -35 c9 -6 17 -5 23 3 6 8 7 6 3 -5 -3 -10
-1 -18 4 -18 6 0 10 -5 10 -10 0 -6 -10 -4 -23 5 -18 12 -31 12 -61 4 -27 -7
-42 -7 -49 0 -13 13 15 25 43 18 11 -3 18 -1 14 4 -7 12 17 11 36 -1z m97
-123 c-2 -23 -3 -1 -3 48 0 50 1 68 3 42 2 -26 2 -67 0 -90z m-207 53 c-6 -12
-14 -19 -17 -16 -4 3 0 18 8 32 7 14 15 21 17 15 2 -5 -2 -20 -8 -31z m115 28
c18 -8 25 -19 26 -42 l2 -31 7 35 7 35 2 -37 c1 -26 -5 -44 -19 -58 l-21 -21
-31 27 c-18 14 -42 30 -55 35 -20 8 -22 12 -13 29 10 18 40 37 62 39 4 1 19
-4 33 -11z m-165 -14 c0 -8 -5 -25 -12 -37 -11 -21 -11 -21 -19 -2 -14 36 -10
55 11 55 11 0 20 -7 20 -16z m294 -59 c-4 -10 0 -15 12 -15 16 0 17 -2 4 -10
-23 -15 -30 -12 -30 15 0 14 4 25 10 25 5 0 7 -7 4 -15z m-201 -6 c23 -13 37
-28 37 -43 0 -6 -6 -2 -13 9 -10 13 -21 16 -40 11 -22 -5 -27 -12 -27 -36 0
-16 5 -32 10 -35 6 -3 10 -10 10 -16 0 -5 -4 -9 -10 -9 -5 0 -10 6 -10 14 0 7
-11 34 -25 60 -14 26 -25 49 -25 52 0 9 72 3 93 -7z m-83 -54 c0 -5 -5 -3 -10
5 -5 8 -10 20 -10 25 0 6 5 3 10 -5 5 -8 10 -19 10 -25z m-43 -55 c43 -108 47
-130 26 -130 -19 0 -47 47 -32 52 5 2 -2 29 -15 60 -12 32 -26 55 -29 52 -4
-4 -1 5 6 19 6 14 12 25 13 24 1 -1 15 -36 31 -77z m141 52 c4 -25 -23 -41
-40 -24 -7 7 -6 17 2 32 14 26 34 22 38 -8z m-210 -2 c-7 -10 -14 -18 -15 -16
-6 6 9 36 18 36 5 0 4 -9 -3 -20z m432 -5 c0 -12 -15 -15 -74 -15 -56 0 -75 4
-80 15 -4 13 8 15 74 15 64 0 80 -3 80 -15z m40 1 c0 -7 -7 -19 -15 -26 -13
-11 -15 -8 -15 14 0 16 5 26 15 26 8 0 15 -6 15 -14z m-594 -18 c19 -23 19
-23 -2 -5 -32 27 -81 22 -115 -12 -16 -16 -29 -26 -29 -21 0 4 14 20 31 34 39
33 89 35 115 4z m65 -40 c16 -29 2 -21 -22 15 -17 23 -18 28 -6 18 10 -8 23
-23 28 -33z m472 25 c-7 -2 -21 -2 -30 0 -10 3 -4 5 12 5 17 0 24 -2 18 -5z
m472 -32 c5 7 4 10 -3 5 -6 -3 -13 -2 -16 3 -10 16 22 6 44 -14 24 -22 11 -46
-15 -25 -18 15 -21 0 -4 -33 9 -19 8 -19 -11 3 -16 18 -20 20 -16 7 3 -11 2
-16 -4 -12 -14 9 -12 -8 3 -25 10 -12 9 -12 -6 0 -10 7 -16 19 -13 26 2 6 -4
14 -15 17 -14 4 -19 14 -19 39 0 48 9 53 41 22 19 -19 29 -22 34 -13z m-855
12 c0 -10 3 -29 5 -43 l6 -25 -12 25 c-7 14 -11 28 -11 33 1 4 -7 7 -18 7 -11
0 -20 -4 -20 -8 0 -5 9 -17 20 -27 21 -19 26 -35 12 -35 -8 0 -16 14 -40 63
-2 4 7 11 20 16 33 14 38 13 38 -6z m94 -30 c19 -55 20 -63 6 -63 -11 0 -28
38 -37 83 -9 45 14 31 31 -20z m91 37 c-3 -5 -12 -10 -18 -10 -7 0 -6 4 3 10
19 12 23 12 15 0z m114 -16 c2 -2 -10 -4 -27 -4 -22 0 -32 -5 -32 -15 0 -9 10
-15 26 -15 43 0 17 -17 -38 -25 -112 -16 -107 -16 -105 5 2 24 25 34 42 20 9
-8 15 -8 20 0 4 6 3 10 -2 9 -22 -4 -23 3 -2 21 19 16 33 19 69 14 24 -3 46
-7 49 -10z m-634 -84 c-19 -38 -38 -70 -40 -70 -3 0 11 32 30 70 19 39 38 70
40 70 3 0 -11 -31 -30 -70z m280 29 c9 -17 15 -33 13 -35 -3 -2 -12 12 -21 31
-21 43 -13 47 8 4z m412 -21 c-3 -8 -6 -5 -6 6 -1 11 2 17 5 13 3 -3 4 -12 1
-19z m-107 -27 c0 -10 -108 -36 -116 -28 -3 3 14 8 38 12 24 4 50 11 58 16 19
11 20 11 20 0z m-162 -67 c-2 -37 -8 -50 -28 -63 -25 -15 -25 -15 -7 6 10 12
14 24 9 27 -5 3 -12 22 -14 41 -4 31 -1 35 20 35 21 0 23 -3 20 -46z m-111 14
c-3 -8 -6 -5 -6 6 -1 11 2 17 5 13 3 -3 4 -12 1 -19z m927 6 c5 -14 4 -15 -9
-4 -17 14 -19 20 -6 20 5 0 12 -7 15 -16z m-917 -56 c-3 -8 -6 -5 -6 6 -1 11
2 17 5 13 3 -3 4 -12 1 -19z m770 -14 c-3 -3 -12 -4 -19 -1 -8 3 -5 6 6 6 11
1 17 -2 13 -5z m187 -5 c-5 -9 -63 -20 -104 -19 l-35 0 25 -13 c14 -8 30 -11
35 -8 6 3 69 4 140 1 l130 -5 -90 -8 c-49 -4 -107 -10 -129 -14 -32 -5 -38 -3
-31 8 6 11 5 12 -5 2 -11 -10 -17 -10 -30 2 -11 10 -27 12 -55 8 l-40 -7 35
-7 35 -6 -32 -2 c-50 -2 -63 -11 -64 -45 l-2 -31 -7 35 -7 35 -3 -30 c-1 -16
-2 -34 -1 -38 1 -5 -2 -6 -7 -3 -5 3 -7 19 -4 36 4 30 3 30 -34 29 -64 -2 -85
0 -79 11 3 6 22 10 41 10 24 0 33 -4 28 -12 -4 -7 -3 -8 5 -4 6 4 9 12 6 17
-4 5 2 9 12 10 12 1 10 3 -7 8 -19 6 -7 10 49 15 45 5 68 11 60 16 -8 6 3 10
31 12 73 5 138 3 134 -3z m-227 -5 c-3 -3 -12 -4 -19 -1 -8 3 -5 6 6 6 11 1
17 -2 13 -5z m-1087 -14 c-8 -5 -22 -9 -30 -9 -10 0 -8 3 5 9 27 12 43 12 25
0z m165 0 c3 -6 -1 -7 -9 -4 -18 7 -21 14 -7 14 6 0 13 -4 16 -10z m1213 -7
c-15 -2 -42 -2 -60 0 -18 2 -6 4 27 4 33 0 48 -2 33 -4z m-380 -20 c-10 -2
-26 -2 -35 0 -10 3 -2 5 17 5 19 0 27 -2 18 -5z m-75 -20 c-7 -2 -19 -2 -25 0
-7 3 -2 5 12 5 14 0 19 -2 13 -5z m290 -29 c-2 -6 5 -14 16 -17 25 -6 27 -22
5 -31 -12 -4 -15 -2 -10 9 3 8 2 14 -2 13 -14 -3 -42 14 -42 26 0 6 8 12 19
12 10 0 17 -5 14 -12z m197 6 c18 -6 8 -8 -38 -8 -34 1 -65 5 -68 10 -6 10 72
9 106 -2z m-1507 -50 c20 -11 37 -24 37 -29 0 -5 -11 -22 -24 -38 -13 -15 -23
-32 -23 -38 0 -14 -51 -50 -60 -41 -4 4 -9 50 -11 103 l-5 97 24 -17 c13 -9
41 -26 62 -37z m1033 35 c-21 -16 -84 -31 -92 -22 -10 10 50 36 81 36 28 0 29
0 11 -14z m90 -16 c6 -5 13 -6 17 -3 3 3 8 -3 11 -13 4 -14 16 -19 47 -19 32
-1 39 2 34 13 -4 12 0 14 20 9 14 -4 25 -2 25 4 0 27 19 5 31 -35 13 -44 14
-45 56 -45 36 0 43 3 43 19 0 13 -8 21 -22 23 -18 2 -23 10 -24 33 -2 29 -2
29 3 3 2 -16 8 -28 12 -28 5 0 6 12 4 28 -4 21 -2 24 6 12 10 -13 11 -13 11 0
0 8 6 3 14 -11 7 -15 13 -37 12 -50 -3 -40 8 -47 15 -9 l6 35 2 -32 c1 -42 30
-46 32 -5 2 24 2 24 6 4 3 -13 15 -28 29 -34 22 -10 24 -17 24 -75 l0 -63 -57
2 -58 2 53 3 52 4 0 53 c0 39 -4 55 -15 60 -8 3 -15 1 -15 -3 0 -5 6 -12 13
-14 6 -3 -2 -6 -20 -6 -17 -1 -39 -4 -49 -8 -14 -5 -16 -2 -12 15 4 12 1 22
-4 22 -6 0 -8 -12 -5 -29 5 -21 1 -34 -14 -47 -11 -10 -17 -24 -15 -31 6 -15
-10 -18 -19 -3 -3 6 -15 10 -26 10 -14 0 -19 -7 -19 -25 0 -24 2 -25 83 -27
68 -1 72 -2 25 -5 -32 -2 -58 -8 -58 -14 0 -6 -7 -6 -19 1 -24 12 -31 13 -31
1 0 -5 8 -12 18 -14 13 -4 11 -5 -5 -6 -22 -1 -23 3 -23 74 l0 75 30 0 c17 0
30 5 30 10 0 6 -36 10 -89 10 -62 0 -91 4 -94 13 -7 18 -20 -79 -15 -108 3
-15 0 -26 -9 -29 -9 -4 -13 -17 -11 -38 3 -31 5 -33 41 -33 29 0 37 -4 37 -19
0 -15 6 -17 30 -14 17 3 30 1 30 -4 0 -4 -9 -8 -20 -8 -19 0 -20 -7 -20 -110
l0 -110 46 0 c27 0 43 4 39 10 -3 6 -19 10 -36 10 -27 0 -29 2 -27 38 1 36 1
36 5 5 4 -32 6 -33 49 -33 l45 0 -5 -162 c-3 -121 -10 -188 -26 -258 -36 -152
-34 -155 -76 115 -20 124 -27 204 -26 295 2 119 -7 142 -22 59 -18 -103 -115
-269 -157 -269 -11 0 -22 7 -26 17 -8 21 23 220 48 300 16 52 24 63 41 63 21
0 21 0 2 15 -18 15 -18 15 0 8 13 -4 17 -3 12 5 -4 7 -4 16 -1 22 3 5 7 64 8
130 1 66 6 120 10 120 5 0 5 5 2 10 -5 8 -11 7 -21 -1 -17 -14 -18 -5 -2 24
10 19 7 18 -21 -6 -38 -32 -60 -27 -37 9 23 34 20 35 -26 9 -88 -47 -109 -42
-61 16 43 50 93 65 129 38z m344 -9 c0 -5 -9 -10 -20 -10 -11 0 -20 5 -20 10
0 6 9 10 20 10 11 0 20 -4 20 -10z m120 -10 c19 -11 30 -19 24 -20 -15 0 -84
29 -84 35 0 10 26 4 60 -15z m-790 -15 c0 -2 -20 -19 -45 -38 -41 -32 -86 -80
-128 -138 l-17 -24 14 30 c20 40 71 97 126 140 46 36 50 38 50 30z m929 -6
c21 -6 48 -19 62 -30 23 -18 23 -18 2 -16 -12 0 -20 4 -17 8 2 4 -22 16 -53
27 -61 22 -56 30 6 11z m-763 -15 c-3 -9 -6 -19 -6 -24 0 -10 -86 -40 -117
-40 -32 0 -22 15 35 51 51 32 98 39 88 13z m-446 1 c0 -2 -18 -14 -40 -25 -22
-11 -40 -18 -40 -15 0 2 17 13 38 24 42 23 42 23 42 16z m186 -17 c4 -7 4 -10
-1 -6 -4 4 -21 -12 -37 -35 -15 -23 -38 -56 -51 -73 -12 -18 -27 -40 -33 -50
-10 -17 -11 -17 -9 3 1 13 4 26 8 29 4 4 7 16 7 28 0 20 0 20 -16 0 -15 -18
-15 -18 -8 5 5 18 3 22 -7 15 -8 -4 -3 7 11 25 19 24 36 35 60 38 19 2 41 10
49 18 18 18 18 18 27 3z m681 6 c-3 -3 -12 -4 -19 -1 -8 3 -5 6 6 6 11 1 17
-2 13 -5z m275 -19 c24 -13 55 -36 69 -51 l24 -26 -27 13 c-16 7 -28 16 -28
21 0 5 -5 6 -12 2 -7 -4 -8 -3 -4 4 6 11 -5 16 -20 10 -3 -2 -10 5 -16 15 -5
10 -19 22 -31 27 -12 5 -17 9 -11 9 6 1 31 -10 56 -24z m-1242 -35 c-12 -23
-16 -24 -26 -8 -4 6 -3 8 3 5 6 -4 13 0 17 8 3 8 8 15 11 15 3 0 1 -9 -5 -20z
m99 -32 c-12 -23 -31 -55 -43 -70 -11 -14 -34 -49 -51 -77 -30 -50 -45 -63
-45 -38 0 14 59 100 72 105 5 2 8 9 8 15 0 7 16 32 35 56 19 24 35 48 35 54 0
6 3 8 6 5 3 -3 -5 -26 -17 -50z m500 36 c6 4 11 2 11 -3 0 -6 -4 -11 -10 -11
-5 0 -7 -7 -3 -15 3 -11 -11 -31 -43 -60 -27 -25 -52 -45 -56 -45 -11 0 1 47
23 92 21 41 50 63 60 46 4 -6 12 -7 18 -4z m-1099 -117 c24 -17 24 -17 -7 0
-18 9 -57 42 -85 72 l-53 55 60 -54 c33 -31 71 -63 85 -73z m365 113 c3 -5 -1
-10 -9 -10 -9 0 -16 5 -16 10 0 6 4 10 9 10 6 0 13 -4 16 -10z m838 -10 c4 0
6 4 3 8 -3 5 1 9 9 9 20 0 19 -7 -2 -24 -10 -8 -13 -12 -6 -9 19 10 25 -11 7
-28 -24 -24 -37 -20 -30 10 4 15 2 33 -6 42 -10 14 -10 15 2 5 8 -7 18 -13 23
-13z m512 10 c3 -5 1 -10 -4 -10 -6 0 -11 5 -11 10 0 6 2 10 4 10 3 0 8 -4 11
-10z m219 -48 c21 -15 33 -28 26 -30 -6 -2 -21 5 -33 16 -12 11 -35 27 -52 36
-26 15 -27 16 -5 10 14 -3 42 -18 64 -32z m-1431 13 c-3 -9 -8 -14 -10 -11 -3
3 -2 9 2 15 9 16 15 13 8 -4z m-382 -9 c13 8 11 -3 -6 -36 -13 -26 -13 -28 3
-25 9 2 18 4 20 5 1 2 7 3 12 4 6 0 15 8 21 16 24 36 -5 -36 -38 -93 -30 -50
-35 -66 -30 -103 2 -25 1 -46 -3 -49 -10 -6 -22 99 -14 119 13 35 -6 13 -37
-41 -40 -72 -49 -56 -15 26 15 33 26 66 26 73 0 8 12 31 26 51 14 21 24 40 22
43 -3 2 -11 -7 -18 -21 -7 -14 -17 -25 -22 -25 -4 0 2 16 14 35 13 19 25 30
26 25 2 -6 8 -8 13 -4z m256 8 c-3 -3 -12 -4 -19 -1 -8 3 -5 6 6 6 11 1 17 -2
13 -5z m494 -42 c-55 -55 -81 -95 -56 -86 8 4 15 4 15 1 0 -7 -62 -38 -67 -33
-8 8 67 104 106 134 23 17 44 32 46 32 2 0 -18 -22 -44 -48z m519 -26 c0 -41
-3 -77 -7 -79 -5 -3 -7 28 -5 68 l4 74 -39 4 -38 4 43 1 42 2 0 -74z m-450 18
c-28 -24 -50 -31 -50 -16 0 12 14 27 40 45 36 25 45 0 10 -29z m653 39 c-7 -2
-19 -2 -25 0 -7 3 -2 5 12 5 14 0 19 -2 13 -5z m101 -118 c-22 -34 -29 -26 -9
11 8 16 16 49 17 74 l2 45 3 -52 c3 -37 -1 -60 -13 -78z m-1929 100 c-40 -19
-67 -18 -35 0 14 8 34 14 45 14 15 -1 13 -4 -10 -14z m1568 8 l-43 -4 0 -43
c0 -23 6 -48 13 -56 10 -12 9 -12 -5 -1 -13 10 -18 27 -18 62 l0 49 48 -2 47
-1 -42 -4z m-961 -14 c-27 -10 -26 -16 18 -119 46 -109 62 -157 58 -176 -3
-18 -118 248 -118 272 0 17 23 34 45 33 18 0 18 -1 -3 -10z m109 -25 c-5 -16
-10 -21 -10 -12 -1 18 10 51 15 45 2 -1 -1 -16 -5 -33z m689 1 c0 -43 -19 -82
-54 -112 -37 -33 -47 -29 -42 15 7 63 18 92 32 92 8 0 14 5 14 11 0 5 4 8 9 5
5 -3 11 1 15 9 10 28 26 15 26 -20z m-1037 10 c-3 -9 -8 -14 -10 -11 -3 3 -2
9 2 15 9 16 15 13 8 -4z m1615 -61 c19 -14 36 -8 26 8 -4 7 -2 8 5 4 9 -6 9
-11 1 -22 -10 -11 -16 -11 -36 3 -19 12 -24 23 -22 52 l1 36 4 -34 c3 -19 12
-40 21 -47z m-1357 45 c37 -67 95 -236 85 -246 -3 -4 -116 252 -116 262 0 11
23 0 31 -16z m819 11 c0 -5 -4 -10 -10 -10 -5 0 -10 5 -10 10 0 6 5 10 10 10
6 0 10 -4 10 -10z m-1421 -26 c-18 -22 -110 -74 -131 -74 -10 0 -18 6 -18 13
0 18 77 60 95 53 8 -3 15 -1 15 5 0 6 4 8 8 5 4 -2 14 -1 22 5 22 13 24 11 9
-7z m506 1 c-23 -8 -83 -10 -79 -3 3 4 24 8 47 7 23 0 38 -2 32 -4z m290 -5
c3 -5 1 -10 -4 -10 -6 0 -11 5 -11 10 0 6 2 10 4 10 3 0 8 -4 11 -10z m1092
-12 c-3 -8 -6 -5 -6 6 -1 11 2 17 5 13 3 -3 4 -12 1 -19z m-1866 -18 c-26 -22
-41 -25 -41 -10 0 6 10 15 23 20 36 14 44 11 18 -10z m1099 5 c-7 -8 -16 -12
-21 -9 -13 8 -1 24 18 24 13 0 13 -3 3 -15z m50 -14 c-11 -38 -4 -44 31 -25
16 8 29 12 29 8 0 -4 8 0 18 7 15 13 16 12 3 -4 -8 -9 -16 -16 -18 -13 -2 2
-15 -6 -27 -18 -13 -11 -42 -31 -65 -44 -35 -20 -41 -21 -41 -7 0 20 15 50 47
93 30 40 34 40 23 3z m-280 11 c0 -5 -7 -17 -15 -28 -14 -18 -14 -17 -4 9 12
27 19 34 19 19z m667 -14 c-3 -8 -6 -5 -6 6 -1 11 2 17 5 13 3 -3 4 -12 1 -19z
m-155 -51 c-19 -44 -42 -69 -42 -47 0 27 43 111 52 102 6 -6 3 -26 -10 -55z
m71 43 c-3 -11 -7 -20 -9 -20 -2 0 -4 9 -4 20 0 11 4 20 9 20 5 0 7 -9 4 -20z
m390 13 c-13 -2 -33 -2 -45 0 -13 2 -3 4 22 4 25 0 35 -2 23 -4z m-1663 -6 c0
-2 -10 -12 -22 -23 l-23 -19 19 23 c18 21 26 27 26 19z m1749 -6 c16 -10 6
-31 -15 -31 -8 0 -14 9 -14 20 0 22 7 25 29 11z m266 -49 c-7 -7 -55 39 -55
52 0 5 13 -3 30 -19 16 -16 28 -31 25 -33z m-398 16 c1 -29 1 -30 -6 -8 -6 22
-13 26 -71 31 l-65 6 70 1 71 2 1 -32z m41 14 c2 -7 -1 -12 -8 -12 -6 0 -9 4
-6 9 4 5 1 12 -4 14 -6 3 -5 4 2 3 6 -1 14 -8 16 -14z m-1348 -14 c21 -3 19
-5 -11 -9 -31 -4 -35 -2 -31 14 3 10 8 14 11 9 3 -6 17 -12 31 -14z m1020 18
c0 -2 -7 -6 -15 -10 -8 -3 -15 -1 -15 4 0 6 7 10 15 10 8 0 15 -2 15 -4z m551
-68 c10 -21 19 -40 19 -43 0 -10 -65 78 -73 99 -8 20 -8 20 14 0 11 -10 30
-36 40 -56z m-2104 25 c-14 -23 -23 -50 -21 -69 2 -33 -29 -93 -39 -77 -9 15
12 83 26 83 8 0 7 4 -2 9 -12 8 -10 16 12 50 34 51 56 54 24 4z m57 22 c3 -9
-3 -19 -15 -26 -28 -15 -36 -3 -14 21 22 24 21 24 29 5z m1756 -30 l0 -45 35
5 c19 2 35 0 35 -5 0 -6 14 -10 30 -10 22 0 30 -5 30 -17 0 -14 -2 -15 -9 -4
-15 23 -19 -160 -5 -190 14 -28 44 -187 44 -233 0 -19 -4 -26 -9 -20 -12 12
-79 166 -97 222 -13 41 -13 42 10 42 19 0 24 7 30 38 9 58 7 152 -4 152 -5 0
-10 -22 -10 -50 0 -43 -3 -50 -20 -50 -11 0 -20 5 -20 10 0 6 7 10 15 10 21 0
19 46 -2 60 -16 10 -16 11 -1 6 12 -3 15 -1 11 10 -7 20 -33 18 -34 -3 -1 -17
-2 -17 -6 0 -5 18 -43 24 -43 6 0 -5 5 -7 10 -4 6 3 10 2 10 -4 0 -5 -6 -11
-12 -14 -18 -6 -5 -18 21 -20 11 -1 21 -5 21 -9 0 -5 -24 -6 -52 -2 -59 8 -75
14 -35 14 15 0 27 5 27 10 0 6 -13 10 -28 10 -23 0 -30 6 -40 33 -7 18 -12 48
-12 65 l0 32 55 0 55 0 0 -45z m-1867 21 c7 -18 -52 -88 -66 -79 -5 3 -7 1 -4
-4 7 -11 -61 -78 -70 -69 -9 8 111 166 127 166 4 0 10 -6 13 -14z m1712 6
l-20 -5 20 -8 c19 -7 19 -8 -2 -8 -23 -1 -30 9 -16 22 3 4 13 6 22 6 11 -1 9
-3 -4 -7z m-1482 -17 c-3 -9 -8 -14 -10 -11 -3 3 -2 9 2 15 9 16 15 13 8 -4z
m927 -46 c-24 -63 -23 -62 -8 -53 6 4 8 3 5 -3 -3 -5 -10 -29 -16 -52 -8 -38
-8 -41 7 -29 10 6 -1 -7 -23 -30 -44 -48 -65 -53 -65 -17 0 39 104 254 117
241 2 -2 -5 -28 -17 -57z m485 51 c3 -5 1 -10 -4 -10 -6 0 -11 5 -11 10 0 6 2
10 4 10 3 0 8 -4 11 -10z m-1195 -23 c0 -8 -9 -22 -20 -32 -20 -18 -20 -17
-20 8 0 23 10 34 33 36 4 1 7 -5 7 -12z m110 -1 c-19 -6 -34 -17 -33 -23 1 -6
-8 -19 -20 -29 l-22 -19 19 23 c22 26 11 30 -16 5 -10 -9 -18 -11 -18 -5 0 18
72 62 100 61 22 0 21 -2 -10 -13z m367 -8 c-3 -8 -6 -5 -6 6 -1 11 2 17 5 13
3 -3 4 -12 1 -19z m-110 -20 c-3 -8 -6 -5 -6 6 -1 11 2 17 5 13 3 -3 4 -12 1
-19z m41 -108 c-18 -14 -63 -55 -100 -92 l-67 -67 19 53 c28 84 75 150 139
198 l36 27 3 -47 c3 -43 1 -49 -30 -72z m1433 78 c16 -29 2 -21 -22 15 -17 23
-18 28 -6 18 10 -8 23 -23 28 -33z m-571 22 c0 -5 6 -10 14 -10 19 0 31 -51
14 -61 -28 -18 -47 -9 -57 29 -14 50 -14 52 9 52 11 0 20 -4 20 -10z m391 -12
c5 -13 16 -54 24 -93 14 -65 14 -66 9 -15 -15 139 -15 137 1 116 32 -42 44
-216 15 -216 -16 0 -60 66 -86 130 -24 59 -26 99 -4 85 5 -3 10 -1 10 4 0 19
20 12 31 -11z m272 -73 c26 -47 39 -88 26 -79 -5 3 -9 11 -9 19 0 7 -20 44
-45 81 -25 36 -45 69 -45 73 0 11 50 -53 73 -94z m-1740 60 c-3 -9 -8 -14 -10
-11 -3 3 -2 9 2 15 9 16 15 13 8 -4z m673 6 c-4 -5 -2 -11 3 -13 5 -1 -24 -70
-65 -153 -40 -82 -74 -154 -74 -160 0 -5 33 55 73 135 54 109 76 145 90 144
15 -2 16 1 5 15 -9 11 -5 10 10 -3 29 -25 25 -64 -17 -143 -54 -101 -171 -227
-191 -207 -11 11 23 184 50 257 31 81 58 120 80 114 11 -3 21 1 24 9 3 8 8 14
11 14 4 0 4 -4 1 -9z m-636 -20 c0 -6 -4 -13 -10 -16 -5 -3 -10 1 -10 9 0 9 5
16 10 16 6 0 10 -4 10 -9z m257 -38 c-3 -10 -5 -4 -5 12 0 17 2 24 5 18 2 -7
2 -21 0 -30z m-602 -45 c-58 -121 -47 -195 45 -293 29 -29 49 -58 46 -63 -3
-5 1 -18 10 -28 14 -18 14 -17 4 6 -11 23 -9 22 14 -5 14 -16 25 -34 26 -39 0
-6 -7 -1 -16 10 -14 18 -15 18 -8 -6 6 -23 6 -24 -11 -10 -10 8 -26 33 -35 55
-18 40 -72 100 -85 93 -12 -5 -36 83 -38 142 -1 45 5 69 35 133 20 42 39 77
42 77 3 0 -10 -32 -29 -72z m239 14 c-19 -57 -40 -71 -30 -20 7 33 34 83 42
75 2 -2 -3 -27 -12 -55z m-165 12 c-10 -23 -13 -25 -16 -11 -3 9 -10 15 -16
11 -7 -3 -1 3 13 14 31 25 34 23 19 -14z m1294 -32 c21 -10 21 -11 -5 -11 -26
-1 -28 2 -27 37 2 27 3 30 6 11 2 -15 14 -31 26 -37z m-1759 8 c43 0 3 -78
-88 -175 l-47 -50 6 45 c8 64 43 164 67 195 20 26 20 26 35 6 8 -12 20 -21 27
-21z m678 -4 c-9 -19 -19 -30 -20 -25 -4 10 24 59 33 59 3 0 -3 -15 -13 -34z
m280 7 c-6 -3 -9 -10 -6 -15 4 -7 2 -8 -4 -4 -12 7 -17 -6 -6 -17 3 -3 5 -85
4 -182 -1 -172 -1 -178 -27 -216 -23 -35 -24 -43 -15 -76 6 -21 22 -76 35
-123 39 -138 93 -298 135 -402 l39 -97 -31 -10 c-17 -5 -40 -12 -51 -14 -18
-4 -18 -5 5 -14 l25 -10 -31 -7 c-42 -9 -122 10 -159 38 -16 13 -54 35 -82 50
-29 14 -53 28 -53 30 0 2 28 -5 62 -15 101 -32 114 -20 28 25 -41 21 -80 43
-86 48 -7 4 -19 38 -28 75 -9 36 -28 93 -42 126 -27 64 -30 97 -19 198 14 132
58 385 71 411 16 31 234 221 243 212 3 -4 0 -9 -7 -11z m1163 -13 c-3 -4 -2
-10 3 -12 16 -6 50 -104 62 -176 18 -111 11 -108 -64 31 -20 37 -44 67 -51 67
-11 0 -15 12 -15 40 0 22 3 39 8 39 24 -4 42 3 42 17 0 8 5 12 10 9 6 -4 8
-10 5 -15z m-1648 -52 c-2 -13 -4 -3 -4 22 0 25 2 35 4 23 2 -13 2 -33 0 -45z
m30 30 c-3 -7 -5 -2 -5 12 0 14 2 19 5 13 2 -7 2 -19 0 -25z m1915 -43 c23
-45 60 -147 54 -152 -2 -2 -11 18 -21 44 -10 27 -28 66 -41 88 -12 22 -28 54
-33 70 -11 28 -10 29 5 10 8 -11 25 -38 36 -60z m-1875 33 c-3 -7 -5 -2 -5 12
0 14 2 19 5 13 2 -7 2 -19 0 -25z m526 25 c-7 -2 -21 -2 -30 0 -10 3 -4 5 12
5 17 0 24 -2 18 -5z m1277 -77 c11 -33 18 -61 16 -63 -4 -4 -56 121 -56 134 0
20 22 -20 40 -71z m-340 60 c0 -2 -9 -6 -20 -9 -11 -3 -20 -1 -20 4 0 5 9 9
20 9 11 0 20 -2 20 -4z m-1013 -68 c-2 -13 -4 -3 -4 22 0 25 2 35 4 23 2 -13
2 -33 0 -45z m-394 -40 c-4 -57 -9 -78 -19 -78 -17 0 -18 49 -3 120 16 73 28
49 22 -42z m87 43 c0 -44 -3 -50 -22 -53 -14 -2 -24 -11 -26 -23 -3 -17 -1
-18 8 -5 8 10 10 11 8 2 -5 -20 -23 -15 -23 6 0 9 10 21 23 27 18 8 22 18 22
52 0 24 2 43 5 43 3 0 5 -22 5 -49z m-582 -3 c-11 -48 -18 -120 -22 -218 -3
-63 -18 -110 -36 -110 -21 0 -32 76 -28 189 6 127 15 165 37 152 9 -6 14 -27
13 -62 l0 -54 14 60 c16 69 22 85 28 85 2 0 -1 -19 -6 -42z m122 17 c-7 -8
-16 -15 -21 -15 -5 0 -1 8 9 18 20 22 31 19 12 -3z m1780 15 c0 -5 -6 -10 -14
-10 -8 0 -18 5 -21 10 -3 6 3 10 14 10 12 0 21 -4 21 -10z m-75 -21 c27 -7 26
-8 -12 -6 -47 3 -49 -7 -3 -16 16 -4 30 -12 30 -18 0 -8 -5 -7 -17 2 -15 13
-16 11 -9 -21 4 -19 9 -46 11 -58 2 -13 10 -31 18 -40 33 -38 15 -364 -26
-465 l-13 -32 -17 25 c-54 83 -88 311 -56 380 3 7 5 35 8 95 2 40 4 46 12 30
6 -13 7 6 3 58 -6 76 -5 77 18 76 12 -1 37 -5 53 -10z m-1535 -21 c0 -19 -2
-20 -10 -8 -13 19 -13 30 0 30 6 0 10 -10 10 -22z m157 -4 c-3 -3 -12 -4 -19
-1 -8 3 -5 6 6 6 11 1 17 -2 13 -5z m613 -39 c18 11 29 -13 22 -49 -13 -66 -7
-105 18 -123 37 -26 47 -25 92 17 23 22 45 37 50 34 4 -3 8 4 8 14 0 11 6 22
14 25 10 4 14 -28 19 -166 5 -120 14 -209 31 -292 30 -147 33 -128 6 32 -11
65 -23 195 -27 290 -5 152 -4 173 10 188 16 15 18 15 26 -7 5 -13 9 -66 10
-118 3 -127 11 -166 37 -162 10 2 16 1 12 -4 -4 -4 -2 -14 4 -22 18 -21 18
-456 1 -473 -11 -11 -13 -9 -14 6 -1 11 -4 4 -8 -15 l-6 -35 -37 57 c-99 153
-159 331 -184 551 -4 35 -10 55 -16 49 -5 -5 -5 -52 1 -118 6 -60 10 -135 10
-166 0 -32 3 -63 7 -70 4 -7 7 -24 6 -39 -2 -24 35 -108 114 -259 l35 -65 -39
43 c-73 79 -160 291 -207 503 -18 83 -33 403 -17 380 6 -7 15 -10 22 -6z
m-460 -12 c0 -3 -7 -14 -16 -24 -9 -10 -20 -33 -24 -51 -7 -30 -8 -31 -9 -6
-1 27 28 88 42 88 4 0 7 -3 7 -7z m-259 -13 c32 -17 18 -70 -18 -70 -22 0 -38
46 -23 65 15 18 16 18 41 5z m79 -5 c0 -8 -7 -15 -15 -15 -26 0 -18 20 13 29
1 1 2 -6 2 -14z m1761 -4 c25 -23 44 -96 59 -224 11 -98 5 -207 -11 -207 -23
0 -98 268 -95 342 1 31 -1 55 -5 53 -3 -2 -6 2 -6 10 0 11 5 12 20 3 18 -9 19
-7 15 16 -6 31 -3 32 23 7z m-2383 -133 c-2 -62 -3 -100 0 -83 2 16 11 38 19
50 15 20 15 20 10 0 -3 -11 -8 -38 -12 -60 -3 -22 -12 -51 -20 -65 -13 -24
-13 -24 -20 20 -3 25 -1 86 4 135 6 50 11 96 11 103 0 6 3 12 6 12 4 0 5 -51
2 -112z m611 27 c-1 -26 -3 -24 -13 15 -12 44 -13 44 -25 22 -7 -13 -15 -21
-18 -19 -2 3 3 17 13 32 l17 27 13 -24 c7 -12 13 -36 13 -53z m112 55 c31 -17
22 -29 -12 -17 -25 10 -35 9 -60 -5 -34 -20 -40 -7 -7 16 26 19 51 20 79 6z
m1062 -145 c14 -72 28 -143 32 -160 5 -25 3 -23 -13 11 -38 80 -78 257 -65
291 10 26 20 -3 46 -142z m-1674 -54 c12 -34 21 -76 21 -94 1 -17 9 -81 19
-142 23 -141 15 -171 -23 -85 -54 121 -79 315 -59 470 l7 55 7 -72 c4 -39 16
-99 28 -132z m2396 115 c15 -80 19 -262 6 -306 -5 -14 -6 16 -3 66 4 83 -9
242 -25 304 -3 14 -3 22 1 19 3 -3 13 -41 21 -83z m-1335 64 c-36 -12 -60 -12
-60 0 0 6 19 10 43 9 36 -1 38 -2 17 -9z m-459 -10 c23 -13 25 -58 3 -86 -14
-18 -14 -18 -3 6 10 21 10 23 -2 13 -8 -6 -25 -11 -39 -10 -21 2 -25 8 -27 34
-4 44 28 64 68 43z m1526 -62 c-3 -8 -6 -5 -6 6 -1 11 2 17 5 13 3 -3 4 -12 1
-19z m-1930 -60 c-2 -13 -4 -3 -4 22 0 25 2 35 4 23 2 -13 2 -33 0 -45z m234
20 c15 -28 5 -21 -21 15 -15 20 -17 27 -6 18 9 -8 22 -23 27 -33z m1180 11
c14 -26 48 -143 54 -183 2 -15 11 -36 20 -46 10 -11 17 -36 17 -62 2 -265 -5
-307 -44 -240 -42 72 -104 506 -77 538 15 18 16 18 30 -7z m540 -23 c6 3 7 -4
3 -20 -4 -17 -2 -26 6 -26 7 0 10 -7 7 -15 -4 -8 -3 -17 2 -19 4 -3 8 -22 9
-43 2 -64 13 -133 23 -139 10 -6 1 -105 -13 -143 -6 -16 -12 -21 -18 -15 -12
12 -106 285 -115 336 -9 46 -1 62 26 48 14 -8 19 -7 19 2 0 9 3 9 10 -2 8 -13
10 -12 10 4 0 46 9 3 21 -97 6 -59 14 -106 16 -103 4 4 -9 149 -21 236 -2 14
-1 17 1 7 2 -9 9 -15 14 -11z m-1702 -108 c-23 -9 -24 -17 -2 -48 26 -38 36
-42 55 -20 16 20 17 19 46 -42 16 -35 32 -75 36 -90 6 -26 5 -27 -20 -18 -36
14 -53 12 -26 -3 12 -7 20 -16 16 -19 -12 -13 8 -48 27 -48 10 0 19 -5 19 -10
0 -6 8 -28 18 -48 18 -37 18 -37 -5 -38 -13 -1 -24 5 -26 15 -3 14 -5 14 -12
-2 -5 -13 -1 -25 15 -43 29 -30 38 -30 49 -2 7 20 10 17 26 -25 10 -26 15 -50
12 -53 -8 -8 -66 24 -114 64 -76 61 -155 234 -192 419 -32 154 -31 156 38 82
52 -56 56 -65 40 -71z m1668 110 c-3 -8 -6 -5 -6 6 -1 11 2 17 5 13 3 -3 4
-12 1 -19z m-20 -10 c-3 -8 -6 -5 -6 6 -1 11 2 17 5 13 3 -3 4 -12 1 -19z
m-528 -123 c7 -60 21 -159 32 -218 21 -110 21 -137 -2 -95 -6 12 -15 25 -19
28 -28 20 -78 220 -65 261 3 10 1 20 -5 24 -15 9 -12 45 4 45 8 0 20 16 27 35
7 19 14 33 15 32 1 -1 7 -51 13 -112z m432 -101 c-20 -202 -86 -510 -121 -564
-8 -13 -11 -13 -23 0 -21 23 -68 162 -73 217 -7 69 -9 85 -18 116 -5 18 -4 32
4 42 7 9 10 18 6 22 -3 3 -6 0 -7 -8 0 -8 -4 -5 -8 6 -9 22 -4 161 6 185 3 8
7 18 7 23 2 17 22 7 36 -19 31 -57 39 -112 42 -287 1 -98 6 -181 10 -183 5 -3
8 64 8 149 0 84 3 157 7 160 3 4 12 2 19 -4 18 -15 63 56 67 107 1 21 6 44 10
51 4 6 10 33 13 60 3 26 8 64 12 83 l6 35 4 -44 c2 -24 -1 -90 -7 -147z
m-1953 46 l-1 -75 -7 55 c-5 30 -8 75 -8 100 0 37 1 40 8 20 4 -14 8 -59 8
-100z m150 92 c6 -18 -15 -14 -22 4 -4 10 -1 14 6 12 6 -2 14 -10 16 -16z
m392 8 l-25 -8 25 -2 c23 -1 23 -2 5 -10 -29 -12 -31 -12 -32 10 -1 16 4 20
25 19 l27 -1 -25 -8z m-631 -225 c0 -19 -1 -18 -19 4 -18 21 -67 159 -59 164
2 1 13 7 24 13 19 11 21 7 37 -75 9 -47 17 -95 17 -106z m1093 167 c-20 -10
-32 -24 -35 -41 l-4 -26 -2 28 c-1 33 31 69 56 60 13 -5 11 -9 -15 -21z m-450
-26 c-3 -5 -9 -1 -13 10 -12 31 -10 39 5 19 8 -11 12 -24 8 -29z m-385 -28
c-3 -7 -5 -2 -5 12 0 14 2 19 5 13 2 -7 2 -19 0 -25z m2000 -5 c-3 -10 -5 -4
-5 12 0 17 2 24 5 18 2 -7 2 -21 0 -30z m-1990 -45 c-3 -8 -6 -5 -6 6 -1 11 2
17 5 13 3 -3 4 -12 1 -19z m-170 -55 c-3 -10 -5 -4 -5 12 0 17 2 24 5 18 2 -7
2 -21 0 -30z m2050 -115 c-3 -51 -10 -106 -16 -123 -8 -28 -7 39 4 138 1 15 3
38 4 52 0 14 4 25 7 25 4 0 4 -42 1 -92z m-932 3 c-7 -12 -64 -25 -73 -16 -3
3 0 10 8 15 19 12 73 13 65 1z m984 -137 c-12 -54 -12 -54 -31 -34 -17 18 -18
30 -12 91 l7 70 24 -36 c23 -34 24 -39 12 -91z m108 84 c-3 -8 -6 -5 -6 6 -1
11 2 17 5 13 3 -3 4 -12 1 -19z m-2732 -9 c22 -5 57 -17 78 -26 39 -17 39 -19
22 -68 -5 -16 -5 -17 4 -5 6 8 11 10 11 4 0 -6 -6 -17 -13 -23 -8 -6 -14 -25
-15 -42 0 -17 -7 -38 -14 -47 -11 -13 -11 -14 0 -8 10 6 9 -1 -3 -24 -12 -22
-22 -30 -33 -26 -9 3 -48 17 -87 30 -76 28 -134 33 -153 14 -9 -9 -16 -7 -32
7 -18 17 -25 17 -53 6 -18 -6 -57 -14 -87 -16 -67 -4 -79 -7 -77 -14 0 -3 -14
-22 -32 -41 l-34 -35 6 45 c8 66 15 79 59 101 30 15 39 25 35 39 -3 12 8 33
32 58 28 31 48 42 90 51 30 6 59 15 65 20 6 5 20 11 31 14 26 8 150 -1 200
-14z m3383 3 c2 -6 30 -17 63 -23 65 -13 97 -40 120 -104 8 -21 23 -38 39 -45
31 -13 60 -67 60 -111 l0 -31 -25 31 c-43 50 -85 71 -126 62 -25 -6 -41 -4
-54 5 -25 18 -59 18 -75 -1 -9 -11 -17 -12 -30 -5 -29 16 -63 12 -152 -17
-103 -33 -114 -34 -114 -12 0 10 5 15 10 11 6 -3 1 6 -11 22 -13 15 -19 34
-16 43 5 12 3 14 -7 8 -9 -5 -11 -4 -6 4 4 6 2 19 -6 28 -11 14 -11 16 2 9 9
-4 8 -2 -2 7 -10 8 -15 17 -11 21 11 11 12 36 2 36 -20 0 4 22 39 37 90 37
290 54 300 25z m-2721 -44 c-3 -7 -5 -2 -5 12 0 14 2 19 5 13 2 -7 2 -19 0
-25z m2050 -50 c-3 -8 -6 -5 -6 6 -1 11 2 17 5 13 3 -3 4 -12 1 -19z m-2259
-59 c17 -6 32 -15 32 -20 0 -6 -6 -6 -18 0 -45 24 -301 25 -262 1 8 -5 19 -6
25 -3 5 4 1 -4 -10 -17 -12 -14 -14 -20 -5 -15 12 7 12 5 -1 -11 -9 -11 -17
-42 -18 -74 -2 -30 -4 -57 -7 -59 -11 -11 -30 22 -29 51 1 18 3 61 3 95 l2 62
48 4 c66 6 201 -2 240 -14z m2533 5 c5 -3 9 -47 9 -99 0 -72 -3 -94 -15 -98
-19 -8 -22 -1 -21 51 1 23 -2 42 -6 42 -5 0 -8 3 -7 8 3 19 -14 51 -25 45 -6
-4 -5 1 2 10 27 33 5 40 -102 33 -78 -5 -104 -10 -113 -23 -7 -9 -13 -12 -13
-6 0 20 29 35 82 43 54 9 192 5 209 -6z m-1831 -61 c-15 -3 -110 33 -110 42 0
2 28 -6 63 -18 34 -12 55 -23 47 -24z m-567 -41 c44 -18 31 -21 -27 -4 -48 13
-57 13 -85 -1 -20 -10 -29 -11 -25 -4 3 7 -5 -1 -18 -18 -13 -16 -22 -31 -20
-32 4 -6 -43 -48 -51 -45 -5 1 -5 -3 -1 -9 3 -6 2 -14 -4 -18 -5 -3 -11 -19
-13 -36 -2 -16 -8 -36 -13 -44 -17 -23 -16 -43 2 -37 9 4 6 -3 -8 -14 -25 -19
-25 -19 -2 -15 13 2 20 0 17 -6 -4 -5 -1 -9 6 -9 7 0 10 -2 8 -4 -7 -7 -113
15 -127 27 -10 8 -13 38 -11 116 2 58 5 120 9 136 6 29 8 30 70 35 87 7 258
-4 293 -18z m2325 12 c22 -4 22 -7 22 -144 0 -76 -4 -141 -9 -144 -5 -4 -29
-9 -53 -12 l-45 -6 2 51 c1 29 -3 55 -8 58 -6 4 -7 1 -2 -7 5 -9 4 -11 -4 -6
-6 4 -9 12 -5 17 3 5 -2 21 -11 36 -11 17 -13 23 -4 17 8 -4 2 8 -13 28 -15
19 -24 39 -20 43 4 3 2 5 -4 3 -6 -2 -25 12 -42 30 -22 23 -37 31 -54 28 -12
-3 -35 -5 -49 -5 -14 -1 -34 -8 -45 -16 -18 -14 -18 -16 -1 -29 10 -8 47 -19
82 -26 36 -7 65 -17 65 -22 0 -5 5 -6 12 -2 7 5 8 3 4 -5 -5 -7 -15 -10 -25
-7 -12 5 -11 2 3 -9 19 -15 17 -27 -7 -31 -7 -1 -30 -5 -52 -8 -22 -4 -55 -9
-72 -12 l-33 -5 0 75 c0 69 2 77 24 92 39 25 256 37 344 18z m-1118 -34 c0 -9
-14 -12 -36 -9 -4 0 -11 -5 -15 -13 -7 -10 -9 -10 -9 3 0 9 3 19 7 22 10 11
53 8 53 -3z m-1180 -81 c0 -47 -4 -68 -11 -64 -5 4 -36 9 -67 11 -84 5 -97 9
-97 30 0 10 -4 22 -9 26 -9 6 37 21 106 33 20 4 45 13 55 21 10 7 19 14 21 14
1 0 2 -32 2 -71z m-622 -51 c-16 -5 -28 -16 -28 -24 0 -19 84 -58 171 -79 l65
-16 14 -47 c7 -26 12 -54 11 -64 -1 -9 3 -19 9 -23 8 -5 8 -10 0 -20 -8 -9 -8
-15 0 -20 6 -3 7 -12 3 -18 -12 -19 -12 -36 -1 -44 6 -3 8 -2 5 4 -3 5 1 10 9
10 9 0 11 -4 5 -10 -5 -5 -7 -17 -4 -26 4 -14 3 -14 -7 -1 -9 12 -10 11 -5 -8
4 -13 1 -29 -5 -37 -9 -11 -8 -14 7 -11 10 2 29 -1 43 -5 56 -19 -99 1 -163
21 -59 18 -66 23 -63 43 2 12 -1 28 -7 35 -7 9 -6 11 7 6 14 -5 15 -3 6 20 -7
19 -6 26 2 26 9 0 9 3 0 12 -6 6 -8 17 -3 27 10 19 9 61 -2 79 -7 11 3 16 25
13 4 0 5 8 3 19 -3 14 2 20 13 20 9 0 -10 12 -43 26 -88 37 -93 38 -98 17 -3
-10 -5 1 -6 24 -1 43 15 63 49 62 8 0 3 -5 -12 -11z m3190 -6 c13 -13 16 -30
14 -70 -4 -57 -13 -65 -14 -13 -1 17 -2 31 -3 31 -14 0 -83 -38 -79 -43 4 -4
-3 -5 -15 -2 -11 2 -21 0 -21 -6 0 -5 6 -9 13 -9 8 0 12 -21 12 -71 0 -39 3
-73 8 -76 4 -2 3 -12 -3 -22 -5 -10 -6 -21 -3 -25 12 -11 13 -45 2 -51 -7 -5
-7 -11 0 -19 14 -16 -104 -56 -180 -60 -30 -2 -41 -2 -26 1 23 3 28 9 24 24
-3 10 0 19 6 19 7 0 3 7 -7 15 -18 14 -15 20 8 16 6 -1 6 3 0 11 -5 7 -9 22
-9 33 0 11 -6 23 -15 27 -11 5 -9 7 8 7 16 1 21 5 15 14 -16 25 -10 68 11 82
11 8 17 15 14 15 -4 0 -3 13 3 28 9 25 20 32 102 56 135 40 172 72 110 94 -18
7 -22 11 -10 11 9 1 25 -7 35 -17z m-2675 -17 c49 -6 57 -10 58 -29 1 -17 2
-17 6 -3 6 21 5 21 271 -3 119 -11 268 -23 331 -28 87 -7 117 -13 126 -26 15
-20 49 -21 65 -1 15 18 68 14 81 -6 5 -9 11 -9 22 3 13 12 65 16 289 21 150 4
325 11 388 17 251 23 498 52 555 65 33 7 61 12 63 10 5 -4 -20 -99 -29 -111
-5 -6 -6 -14 -3 -17 4 -3 8 -25 10 -49 2 -24 5 -58 7 -75 2 -18 1 -33 -3 -33
-4 0 -8 -17 -9 -37 -1 -21 -4 -51 -5 -68 -2 -16 1 -38 6 -47 5 -11 5 -18 0
-18 -10 0 -8 -43 4 -61 4 -7 3 -10 -3 -6 -12 7 -26 -17 -16 -27 3 -3 18 -3 32
-1 17 4 13 0 -10 -9 -34 -13 -161 -29 -444 -56 -160 -15 -156 -15 -145 16 17
43 12 45 -45 13 -30 -17 -62 -29 -72 -28 -10 1 -38 -4 -63 -11 -35 -11 -131
-14 -440 -13 -217 1 -411 5 -430 10 -27 7 -37 16 -46 41 l-10 32 -21 -27 -21
-28 -28 62 c-15 35 -31 63 -36 63 -12 0 -10 -5 14 -51 27 -53 17 -75 -33 -71
-56 5 -69 12 -75 40 -3 15 -9 35 -15 45 -7 14 -5 17 11 17 36 0 20 33 -22 43
-18 5 -41 28 -72 75 -42 62 -44 68 -27 76 26 11 42 50 34 86 -9 49 -60 85
-139 100 -38 6 -81 20 -96 31 -35 24 -36 24 -30 -7 3 -15 17 -33 33 -43 34
-19 39 -56 9 -64 -14 -3 -20 -14 -20 -32 0 -18 6 -29 20 -32 17 -5 20 -14 20
-59 0 -41 -4 -54 -15 -54 -32 0 -14 -28 23 -34 60 -10 82 -7 82 9 0 8 -7 15
-15 15 -11 0 -15 11 -15 40 0 58 21 51 65 -22 44 -73 83 -118 102 -118 11 0
10 -7 -3 -32 l-16 -32 -15 27 c-10 20 -21 27 -43 27 -29 0 -30 -2 -30 -46 l0
-47 -67 6 c-38 3 -98 11 -135 17 -63 11 -65 13 -50 29 10 10 21 16 26 13 4 -2
3 -8 -4 -12 -8 -5 -8 -9 3 -13 19 -7 16 21 -4 37 -17 13 -20 26 -23 87 -1 26
-8 55 -16 65 -14 17 -14 18 2 6 15 -12 16 -9 15 35 -1 26 -6 51 -12 56 -6 4
-4 11 5 17 12 8 12 10 1 10 -10 0 -12 9 -7 38 11 60 13 91 5 94 -6 3 -13 83
-10 110 1 4 11 4 24 -1 13 -5 49 -12 80 -16z m-573 -120 c0 -124 0 -125 -23
-125 -13 0 -59 -9 -103 -21 -82 -22 -136 -21 -212 2 -35 10 -38 14 -34 40 2
16 9 29 16 30 6 0 31 1 56 1 l45 0 -40 8 c-22 4 -31 8 -20 9 17 2 17 4 -5 11
-73 23 -120 51 -135 79 -8 17 -13 31 -10 31 4 0 47 -12 97 -26 l90 -26 75 27
c53 20 78 34 85 51 10 22 17 24 101 32 15 2 17 -10 17 -123z m3393 108 c4 -2
7 -11 7 -18 0 -17 34 -35 107 -59 52 -17 54 -17 142 8 49 14 92 26 96 26 3 0
-1 -13 -9 -28 -9 -17 -34 -37 -65 -52 -28 -13 -51 -27 -51 -31 0 -5 -7 -6 -15
-3 -8 4 -15 1 -15 -6 0 -6 -4 -9 -9 -5 -5 3 -12 1 -16 -4 -3 -6 11 -9 37 -8
40 2 43 0 43 -23 0 -14 4 -28 8 -31 5 -4 -21 -14 -58 -24 -56 -15 -74 -16
-123 -7 -31 7 -85 17 -119 23 -73 14 -73 13 -73 157 l0 104 53 -7 c28 -4 55
-9 60 -12z m-3366 -110 c-3 -10 -5 -2 -5 17 0 19 2 27 5 18 2 -10 2 -26 0 -35z
m119 22 c-3 -20 -16 -31 -16 -13 0 13 8 28 16 28 1 0 1 -7 0 -15z m583 -66
c63 -22 48 -99 -18 -84 -29 6 -31 9 -31 51 0 48 2 49 49 33z m2541 -77 l0 -78
-35 -17 c-43 -21 -47 -14 -4 8 29 16 30 19 29 78 -2 77 -1 87 5 87 3 0 5 -35
5 -78z m-3143 46 c2 -17 0 -19 -7 -8 -5 8 -6 18 -4 22 8 12 10 10 11 -14z
m488 -26 c0 -18 -20 -15 -23 4 -3 10 1 15 10 12 7 -3 13 -10 13 -16z m-589
-72 c1 -16 -3 -27 -7 -24 -11 6 -12 54 -1 54 4 0 7 -13 8 -30z m2802 -15 c0
-14 -4 -27 -8 -30 -3 -2 -5 6 -4 18 1 12 3 25 3 30 2 18 9 5 9 -18z m357 -45
c3 -6 -1 -7 -9 -4 -18 7 -21 14 -7 14 6 0 13 -4 16 -10z m-2728 -97 c-3 -10
-5 -2 -5 17 0 19 2 27 5 18 2 -10 2 -26 0 -35z m2380 -5 c-3 -8 -6 -5 -6 6 -1
11 2 17 5 13 3 -3 4 -12 1 -19z"/>
<path d="M3640 3906 c0 -2 8 -10 18 -17 15 -13 16 -12 3 4 -13 16 -21 21 -21
13z"/>
<path d="M1866 4151 c-4 -5 -4 -15 -2 -23 2 -7 7 -25 10 -40 7 -31 24 -35 75
-17 35 12 42 46 15 73 -17 17 -89 22 -98 7z"/>
<path d="M1919 3629 l-24 -20 28 17 c15 9 27 18 27 20 0 8 -8 4 -31 -17z"/>
<path d="M1494 2769 c0 -13 3 -15 13 -7 7 6 13 12 13 13 0 2 -6 5 -13 8 -7 3
-13 -3 -13 -14z"/>
<path d="M2473 3203 c-7 -18 33 -57 48 -47 15 9 0 24 -17 17 -12 -4 -14 0 -8
21 7 29 -12 37 -23 9z"/>
<path d="M2420 3110 c0 -19 3 -21 12 -12 9 9 9 15 0 24 -9 9 -12 7 -12 -12z"/>
<path d="M2470 3030 c0 -5 5 -10 11 -10 5 0 7 -5 3 -12 -4 -7 -3 -8 5 -4 9 6
9 11 0 22 -14 17 -19 18 -19 4z"/>
<path d="M3050 2660 c0 -5 5 -10 10 -10 6 0 10 5 10 10 0 6 -4 10 -10 10 -5 0
-10 -4 -10 -10z"/>
<path d="M3080 2625 c0 -8 7 -15 15 -15 8 0 15 7 15 15 0 8 -7 15 -15 15 -8 0
-15 -7 -15 -15z"/>
<path d="M3010 2589 c0 -6 33 -9 90 -8 49 1 87 6 84 10 -8 13 -174 11 -174 -2z"/>
<path d="M3250 2580 c0 -5 4 -10 9 -10 6 0 13 5 16 10 3 6 -1 10 -9 10 -9 0
-16 -4 -16 -10z"/>
<path d="M3142 2526 c13 -14 28 -12 28 5 0 5 -9 9 -20 9 -17 0 -19 -2 -8 -14z"/>
<path d="M3180 2529 c0 -5 5 -7 10 -4 6 3 10 8 10 11 0 2 -4 4 -10 4 -5 0 -10
-5 -10 -11z"/>
<path d="M2990 2344 c0 -10 5 -26 10 -34 7 -11 8 -8 6 13 -3 32 -16 49 -16 21z"/>
<path d="M3020 2315 c0 -8 4 -15 10 -15 5 0 7 7 4 15 -4 8 -8 15 -10 15 -2 0
-4 -7 -4 -15z"/>
<path d="M2921 2114 c0 -11 3 -14 6 -6 3 7 2 16 -1 19 -3 4 -6 -2 -5 -13z"/>
<path d="M3100 2091 c0 -4 -12 -6 -26 -3 -17 3 -25 1 -21 -5 10 -16 57 -13 57
3 0 8 -2 14 -5 14 -3 0 -5 -4 -5 -9z"/>
<path d="M2906 2064 c-4 -14 -5 -28 -3 -31 3 -2 8 8 11 23 4 14 5 28 3 31 -3
2 -8 -8 -11 -23z"/>
<path d="M2891 2013 c-1 -6 -4 -20 -7 -30 -5 -17 -5 -17 6 0 6 10 9 23 6 30
-3 9 -5 9 -5 0z"/>
<path d="M3203 2339 c6 -48 28 -75 52 -65 22 8 10 26 -18 27 -12 0 -16 3 -9 6
6 2 12 20 12 39 0 28 -4 34 -21 34 -20 0 -21 -4 -16 -41z"/>
<path d="M3250 2345 c0 -30 3 -35 23 -35 21 1 21 1 3 11 -15 9 -16 13 -5 20
12 8 12 10 0 18 -11 7 -11 9 0 14 10 4 9 6 -3 6 -14 1 -18 -7 -18 -34z"/>
<path d="M1408 2343 c-18 -21 -31 -43 -25 -43 2 0 13 14 25 30 25 33 24 41 0
13z"/>
<path d="M1302 2085 c-17 -37 -14 -45 4 -12 9 16 14 31 11 33 -2 2 -9 -7 -15
-21z"/>
<path d="M2173 1937 c4 -10 0 -20 -11 -26 -20 -11 -10 -26 13 -18 18 7 20 43
3 53 -8 5 -9 2 -5 -9z"/>
<path d="M2117 1890 c3 -11 9 -17 14 -15 10 7 1 35 -11 35 -5 0 -6 -9 -3 -20z"/>
<path d="M2136 1785 c-3 -8 -15 -15 -26 -15 -13 0 -20 -7 -20 -20 0 -11 5 -20
10 -20 6 0 10 5 10 11 0 6 8 8 18 5 25 -8 57 17 49 38 -8 20 -33 21 -41 1z"/>
<path d="M2116 1649 c-15 -12 -25 -23 -23 -25 6 -6 67 29 67 39 0 13 -17 8
-44 -14z"/>
<path d="M2046 1542 c-2 -4 -7 -29 -10 -57 -3 -27 -3 -42 0 -32 7 21 54 47 86
47 13 0 46 7 73 14 l50 14 -65 1 c-36 1 -80 5 -97 10 -18 5 -35 6 -37 3z"/>
<path d="M2082 1448 c-21 -21 -13 -26 23 -14 47 17 54 26 19 26 -17 0 -35 -5
-42 -12z"/>
<path d="M2100 1400 c-18 -12 -2 -12 25 0 13 6 15 9 5 9 -8 0 -22 -4 -30 -9z"/>
<path d="M2157 1303 c-4 -3 -7 -17 -7 -30 0 -16 6 -23 20 -23 13 0 20 7 20 19
0 21 -23 45 -33 34z m23 -34 c0 -6 -4 -7 -10 -4 -5 3 -10 11 -10 16 0 6 5 7
10 4 6 -3 10 -11 10 -16z"/>
<path d="M2142 1209 c5 -44 39 -53 136 -37 78 13 91 24 40 33 -40 7 -113 22
-151 31 -27 6 -28 5 -25 -27z"/>
<path d="M3440 2121 c0 -11 5 -23 10 -26 6 -3 10 3 10 14 0 11 -4 23 -10 26
-5 3 -10 -3 -10 -14z"/>
<path d="M1432 1950 c0 -14 2 -19 5 -12 2 6 2 18 0 25 -3 6 -5 1 -5 -13z"/>
<path d="M1423 1865 c0 -33 2 -45 4 -27 2 18 2 45 0 60 -2 15 -4 0 -4 -33z"/>
<path d="M3260 2016 c0 -2 7 -9 15 -16 13 -11 14 -10 9 4 -5 14 -24 23 -24 12z"/>
<path d="M3242 1900 c0 -14 2 -19 5 -12 2 6 2 18 0 25 -3 6 -5 1 -5 -13z"/>
<path d="M3252 1800 c0 -19 2 -27 5 -17 2 9 2 25 0 35 -3 9 -5 1 -5 -18z"/>
<path d="M3263 1705 c0 -22 2 -30 4 -17 2 12 2 30 0 40 -3 9 -5 -1 -4 -23z"/>
<path d="M3273 1595 c0 -22 2 -30 4 -17 2 12 2 30 0 40 -3 9 -5 -1 -4 -23z"/>
<path d="M2821 1344 c0 -11 3 -14 6 -6 3 7 2 16 -1 19 -3 4 -6 -2 -5 -13z"/>
<path d="M2831 1304 c0 -11 3 -14 6 -6 3 7 2 16 -1 19 -3 4 -6 -2 -5 -13z"/>
<path d="M2841 1254 c0 -11 3 -14 6 -6 3 7 2 16 -1 19 -3 4 -6 -2 -5 -13z"/>
<path d="M3692 1715 c0 -16 2 -22 5 -12 2 9 2 23 0 30 -3 6 -5 -1 -5 -18z"/>
<path d="M1965 1887 c-10 -8 -14 -17 -9 -20 6 -3 15 3 22 14 14 23 12 24 -13
6z"/>
<path d="M3552 1505 c0 -16 2 -22 5 -12 2 9 2 23 0 30 -3 6 -5 -1 -5 -18z"/>
<path d="M3251 1054 c0 -11 3 -14 6 -6 3 7 2 16 -1 19 -3 4 -6 -2 -5 -13z"/>
<path d="M3251 1014 c0 -11 3 -14 6 -6 3 7 2 16 -1 19 -3 4 -6 -2 -5 -13z"/>
<path d="M1480 971 c0 -5 7 -11 15 -15 8 -3 15 -10 15 -15 0 -6 -6 -8 -14 -5
-8 3 -17 1 -21 -5 -4 -7 2 -10 15 -8 23 4 42 26 34 39 -3 5 -10 6 -15 3 -5 -4
-9 -1 -9 4 0 6 -4 11 -10 11 -5 0 -10 -4 -10 -9z"/>
<path d="M3488 772 c-73 -15 -95 -30 -68 -47 15 -9 13 -95 -2 -95 -9 0 -9 -3
0 -12 14 -14 16 -108 2 -108 -5 0 -10 -7 -10 -15 0 -12 17 -15 95 -15 l95 0 0
46 c0 38 -3 45 -17 42 -10 -2 -19 -13 -21 -26 -3 -18 -10 -22 -43 -22 -39 0
-39 0 -39 40 0 37 2 39 35 46 25 4 35 11 35 25 0 15 -7 19 -35 19 -33 0 -35 2
-35 35 0 36 3 38 53 49 24 6 27 3 27 -19 0 -40 27 -30 34 13 11 71 19 68 -106
44z"/>
<path d="M3258 723 c-25 -3 -38 -9 -38 -19 0 -8 5 -14 10 -14 6 0 10 -38 10
-94 0 -53 -4 -98 -10 -101 -27 -17 -2 -25 75 -25 l85 0 0 29 c0 16 3 36 6 45
4 11 0 16 -14 16 -11 0 -23 -9 -27 -19 -5 -16 -31 -30 -57 -31 -5 0 -8 43 -8
95 0 57 4 95 10 95 6 0 10 7 10 15 0 8 -3 14 -7 13 -5 -1 -25 -3 -45 -5z"/>
<path d="M1341 704 c0 -11 3 -14 6 -6 3 7 2 16 -1 19 -3 4 -6 -2 -5 -13z"/>
<path d="M1795 650 c-10 -34 -24 -60 -32 -60 -15 0 -18 -16 -4 -25 14 -8 -8
-65 -25 -65 -15 0 -19 -16 -6 -24 4 -2 24 -7 45 -11 30 -6 37 -4 37 9 0 9 -4
16 -10 16 -5 0 -10 7 -10 16 0 14 8 16 41 11 51 -7 67 -20 49 -41 -14 -18 -10
-20 53 -31 29 -5 37 -3 37 10 0 8 -4 15 -10 15 -14 0 -40 67 -34 85 4 9 0 15
-8 15 -7 0 -23 28 -36 65 -13 36 -28 65 -32 65 -5 0 -15 2 -22 5 -11 4 -20
-11 -33 -55z m65 -87 c0 -15 -19 -17 -38 -5 -10 7 -10 15 -2 38 l12 29 13 -25
c8 -14 14 -31 15 -37z"/>
<path d="M3030 685 c0 -8 5 -15 10 -15 6 0 10 -36 10 -89 0 -50 -4 -93 -10
-96 -5 -3 -10 -13 -10 -20 0 -12 14 -14 78 -9 42 4 80 9 83 13 4 3 10 22 13
43 6 33 5 36 -14 31 -11 -3 -20 -14 -20 -24 0 -15 -7 -19 -35 -19 l-35 0 0 85
c0 67 3 87 15 91 31 12 13 24 -35 24 -38 0 -50 -4 -50 -15z"/>
<path d="M2938 683 c-31 -5 -37 -18 -13 -27 13 -5 15 -21 13 -88 -3 -78 -4
-83 -26 -86 -40 -6 -52 14 -52 88 0 48 4 71 15 80 27 23 17 32 -27 25 -51 -9
-55 -12 -40 -27 7 -7 12 -44 12 -95 0 -77 2 -84 25 -99 20 -13 38 -15 90 -9
45 4 65 11 65 20 0 8 -4 17 -10 20 -17 10 -12 160 5 175 33 27 15 34 -57 23z"/>
<path d="M2001 644 c-39 -50 -22 -167 29 -194 10 -5 42 -12 71 -15 l52 -5 -5
44 c-5 39 -3 45 16 50 32 8 8 25 -47 32 -39 6 -47 4 -47 -10 0 -9 7 -16 15
-16 10 0 15 -10 15 -30 0 -16 -3 -30 -6 -30 -11 0 -49 23 -56 34 -12 18 -9
101 4 114 20 20 65 15 71 -8 9 -35 37 -24 37 14 0 30 -4 34 -31 40 -65 13 -97
7 -118 -20z"/>
<path d="M2629 641 c-21 -17 -24 -27 -24 -96 0 -69 3 -79 24 -96 32 -26 84
-24 116 4 45 38 47 145 5 187 -26 26 -90 27 -121 1z m91 -40 c14 -27 13 -94
-3 -115 -17 -24 -48 -17 -65 14 -14 28 -10 84 9 106 16 20 47 17 59 -5z"/>
<path d="M2235 590 c-11 -36 -24 -60 -32 -60 -10 0 -12 -6 -8 -20 4 -12 0 -31
-9 -45 -9 -13 -16 -26 -16 -29 0 -2 18 -6 40 -8 26 -2 40 1 40 8 0 7 -5 14
-12 16 -24 8 5 28 42 28 37 0 66 -20 42 -28 -7 -2 -12 -10 -12 -18 0 -10 13
-14 45 -14 45 0 54 7 34 27 -5 5 -28 52 -49 104 -32 79 -42 94 -63 97 -21 3
-26 -4 -42 -58z m60 -47 c5 -20 3 -23 -19 -23 -24 0 -24 2 -14 31 11 32 21 29
33 -8z"/>
<path d="M2390 610 c0 -29 4 -40 15 -40 8 0 15 9 15 20 0 13 7 20 20 20 18 0
20 -7 20 -79 0 -61 -3 -80 -15 -85 -33 -12 -12 -26 40 -26 52 0 73 14 40 26
-12 5 -15 24 -15 85 0 72 2 79 20 79 15 0 20 -7 20 -25 0 -18 4 -23 15 -19 10
4 15 20 15 45 l0 39 -95 0 -95 0 0 -40z"/>
<path d="M2168 3618 c-13 -13 -17 -18 -8 -12 8 6 24 16 35 22 11 6 15 12 8 12
-7 0 -22 -10 -35 -22z"/>
<path d="M2668 3633 c7 -3 16 -2 19 1 4 3 -2 6 -13 5 -11 0 -14 -3 -6 -6z"/>
<path d="M2133 3618 c-15 -20 -25 -38 -20 -38 3 0 12 11 21 25 17 26 16 35 -1
13z"/>
<path d="M2171 3553 c-40 -42 -40 -77 0 -122 28 -30 35 -33 71 -28 47 6 75 29
81 66 l4 26 2 -28 c1 -27 -21 -56 -65 -85 -16 -11 -15 -11 6 -1 39 18 70 50
70 74 0 12 -7 42 -16 67 -15 46 -36 64 -56 51 -7 -3 -8 -1 -4 6 6 8 -2 11 -27
9 -24 -1 -44 -12 -66 -35z m123 -56 c-1 -17 -3 -37 -3 -43 -1 -6 -14 -17 -31
-24 -43 -18 -80 7 -80 54 0 40 13 53 60 58 46 4 58 -6 54 -45z m-124 28 c-7
-8 -10 -28 -8 -44 2 -17 1 -28 -4 -25 -12 8 -10 58 4 72 17 17 23 15 8 -3z"/>
<path d="M2214 3495 c-4 -9 -2 -21 4 -27 15 -15 44 -1 40 19 -4 23 -36 29 -44
8z"/>
<path d="M2795 3550 c-3 -5 1 -10 9 -10 8 0 18 5 21 10 3 6 -1 10 -9 10 -8 0
-18 -4 -21 -10z"/>
<path d="M1967 3468 c-5 -52 -3 -67 8 -56 10 10 15 108 6 108 -5 0 -11 -24
-14 -52z"/>
<path d="M1694 3465 c-9 -22 4 -35 36 -35 18 0 34 -8 44 -22 16 -22 16 -22 16
-2 0 51 -80 101 -96 59z"/>
<path d="M2066 3441 c-4 -7 -5 -15 -2 -18 9 -9 19 4 14 18 -4 11 -6 11 -12 0z"/>
<path d="M2104 3397 c-23 -12 -48 -28 -57 -35 -9 -8 -24 -13 -34 -12 -30 4
-43 0 -43 -10 0 -5 20 -10 45 -10 37 0 50 5 79 35 38 38 66 44 86 20 7 -8 18
-15 24 -15 6 0 -2 11 -19 25 -36 29 -30 29 -81 2z"/>
<path d="M1919 3360 c-13 -10 -20 -19 -16 -20 11 0 67 29 67 35 0 12 -30 3
-51 -15z"/>
<path d="M1860 3359 c0 -5 5 -7 10 -4 6 3 10 8 10 11 0 2 -4 4 -10 4 -5 0 -10
-5 -10 -11z"/>
<path d="M2104 3215 c-4 -10 -1 -21 7 -26 20 -12 34 -5 34 17 0 24 -33 31 -41
9z m36 -5 c0 -5 -4 -10 -9 -10 -6 0 -13 5 -16 10 -3 6 1 10 9 10 9 0 16 -4 16
-10z"/>
</g>
</svg>
